<svg xmlns="http://www.w3.org/2000/svg" width="16" height="16" viewBox="0 0 16 16">
<path fill="#1B1D24" d="M8,6.8c-1,0-1.9,0.8-1.9,1.9S7,10.5,8,10.5s1.9-0.8,1.9-1.9S9,6.8,8,6.8L8,6.8z M13,4.9h-1.5
	c-0.2,0-0.4-0.1-0.5-0.4l-0.4-1.2C10.5,3.1,10.3,3,10.1,3H5.9C5.7,3,5.5,3.1,5.4,3.4L5,4.5C4.9,4.7,4.7,4.9,4.5,4.9H3
	c-0.7,0-1.2,0.6-1.3,1.2v5.6C1.8,12.4,2.3,13,3,13h10c0.7,0,1.2-0.6,1.3-1.3V6.1C14.2,5.4,13.7,4.9,13,4.9L13,4.9z M8,11.8
	c-1.7,0-3.1-1.4-3.1-3.1S6.3,5.5,8,5.5s3.1,1.4,3.1,3.1S9.7,11.8,8,11.8L8,11.8z M12.6,7c-0.2,0-0.4-0.2-0.4-0.4
	c0-0.2,0.2-0.4,0.4-0.4c0.2,0,0.4,0.2,0.4,0.4c0,0,0,0,0,0C13,6.8,12.8,7,12.6,7z"/>
</svg>
